<?xml version="1.0" encoding="UTF-8"?>
<svg xmlns="http://www.w3.org/2000/svg" version="1.1" viewBox="0 0 128 128">
  <defs>
    <style>
      #decanter-bg { isolation: isolate; fill-rule: evenodd; fill: #ffffff; }
      #wave { isolation: isolate; fill-rule: evenodd; fill: #b60005; }
      #decanter { isolation: isolate; fill-rule: evenodd; fill: #000000; }
    </style>
  </defs>
  <path id="decanter-bg" d="M110.84,93.64l-28.06-21.39h0c-6.12-4.66-9.9-11.08-9.9-18.17,0-.89.06-1.78.18-2.65l3.59-28.68-26.27-7.88,4.58,36.62h0c.11.85.17,1.71.17,2.59,0,7.09-3.78,13.51-9.9,18.16h0l-28.06,21.39c-5.37,4.09-3.45,12.14,2.33,13.98h0c8.29,2.6,25.11,4.38,44.5,4.38s36.21-1.78,44.5-4.38h0c5.78-1.84,7.71-9.89,2.34-13.98Z"/>
  <path id="wave" d="M110.84,93.64l-4.93-3.76h-.03s-.12,0-.12,0h-.12s-.12,0-.12,0h-.12s-.12.01-.12.01h-.12s-.12.01-.12.01h-.12s-.12.02-.12.02h-.12s-.12.02-.12.02h-.12s-.12.02-.12.02h-.12s-.12.02-.12.02h-.12s-.12.03-.12.03h-.12s-.12.03-.12.03h-.12s-.12.03-.12.03h-.12s-.12.03-.12.03h-.12s-.12.03-.12.03h-.12s-.12.03-.12.03h-.12s-.12.02-.12.02h-.12s-.12.02-.12.02h-.12s-.12.02-.12.02h-.12s-.12.01-.12.01h-.12s-.12,0-.12,0h-.12s-.12,0-.12,0h-.12s-.12,0-.12,0h-.12s-.12,0-.12,0h-.12s-.12-.01-.12-.01h-.12s-.12-.02-.12-.02h-.12s-.12-.03-.12-.03l-.12-.02-.12-.02-.12-.02-.12-.02-.12-.02-.12-.02-.12-.02-.12-.02-.12-.03-.12-.03-.12-.03-.12-.03-.12-.03-.12-.03-.12-.03-.12-.03-.12-.03-.12-.03-.12-.03-.12-.03-.12-.02-.12-.02-.12-.02-.12-.02-.12-.02-.12-.02-.12-.02h-.12s-.12-.03-.12-.03h-.12s-.12-.02-.12-.02h-.12s-.12,0-.12,0h-.12s-.12,0-.12,0h-.12s-.12.02-.12.02h-.12s-.12.03-.12.03l-.12.02-.12.02-.12.03-.12.03-.12.03-.12.03-.12.04-.12.04-.12.04-.12.05-.12.05-.12.05-.12.05-.12.05-.12.05-.12.05-.12.06-.12.06-.12.06-.12.06-.12.05-.12.05-.12.05-.12.05-.12.05-.12.05-.12.04-.12.04-.12.04-.12.03-.12.03-.12.03-.12.02-.12.02h-.12s-.12.02-.12.02h-.12s-.12,0-.12,0h-.12s-.12-.03-.12-.03l-.12-.02-.12-.03-.12-.04-.12-.04-.12-.05-.12-.05-.12-.06-.12-.07-.12-.07-.12-.08-.12-.08-.12-.09-.12-.09-.12-.1-.12-.1-.12-.1-.12-.11-.12-.11-.12-.11-.12-.11-.12-.11-.12-.11-.12-.11-.12-.11-.12-.11-.12-.1-.12-.1-.12-.1-.12-.09-.12-.09-.12-.08-.12-.07-.12-.07-.12-.06-.12-.05-.12-.04-.12-.03-.12-.02h-.12s-.12,0-.12,0h-.12s-.12.04-.12.04l-.12.04-.12.05-.12.06-.12.08-.12.09-.12.1-.12.11-.12.12-.12.14-.12.15-.12.16-.12.17-.12.18-.12.19-.12.19-.12.2-.12.21-.12.21-.12.22-.12.22-.12.22-.12.22-.12.22-.12.22-.12.22-.12.21-.12.21-.12.2-.12.19-.12.18-.12.17-.12.16-.12.14-.12.13-.12.11-.12.09-.12.07-.12.05-.12.03h-.12s-.12,0-.12,0l-.12-.04-.12-.06-.12-.09-.12-.11-.12-.13-.12-.16-.12-.18-.12-.21-.12-.23-.12-.26-.12-.28-.12-.3-.12-.32-.12-.34-.12-.36-.12-.37-.12-.39-.12-.4-.12-.41-.12-.42-.12-.43-.12-.43-.12-.43-.12-.43-.12-.43-.12-.43-.12-.42-.12-.41-.12-.39-.12-.38-.12-.36-.12-.34-.12-.31-.12-.28-.12-.25-.12-.22-.12-.19-.12-.15-.12-.11-.12-.07-.12-.03h-.12s-.12.06-.12.06l-.12.1-.12.14-.12.19-.12.24-.12.28-.12.33-.12.37-.12.42-.12.46-.12.5-.12.54-.12.58-.12.62-.12.65-.12.68-.12.7-.12.73-.12.74-.12.76-.12.77-.12.78-.12.78-.12.78-.12.77-.12.76-.12.74-.12.72-.12.69-.12.66-.12.62-.12.58-.12.54-.12.49-.12.43-.12.38-.12.31-.12.25-.12.18-.12.11-.12.04-.12-.03-.12-.1-.12-.18-.12-.26-.12-.33-.12-.4-.12-.48-.12-.55-.12-.62-.12-.69-.12-.75-.12-.81-.12-.86-.12-.92-.12-.96-.12-1-.12-1.04-.12-1.07-.12-1.09-.12-1.11-.12-1.12-.12-1.12-.12-1.12-.12-1.11-.12-1.09-.12-1.06-.12-1.03-.12-.99-.12-.95-.12-.9-.12-.84-.12-.78-.12-.71-.12-.64-.12-.56-.12-.48-.12-.4-.12-.31-.12-.23-.12-.14-.12-.05-.12.05-.12.14-.12.23-.12.31-.12.4-.12.48-.12.56-.12.64-.12.71-.12.78-.12.84-.12.9-.12.95-.12.99-.12,1.03-.12,1.06-.12,1.09-.12,1.11-.12,1.12-.12,1.12-.12,1.12-.12,1.11-.12,1.09-.12,1.07-.12,1.04-.12,1-.12.96-.12.92-.12.86-.12.81-.12.75-.12.69-.12.62-.12.55-.12.48-.12.4-.12.33-.12.26-.12.18-.12.1-.12.03-.12-.04-.12-.11-.12-.18-.12-.25-.12-.31-.12-.38-.12-.43-.12-.49-.12-.54-.12-.58-.12-.62-.12-.66-.12-.69-.12-.72-.12-.74-.12-.76-.12-.77-.12-.78-.12-.78-.12-.78-.12-.77-.12-.76-.12-.74-.12-.73-.12-.7-.12-.68-.12-.65-.12-.62-.12-.58-.12-.54-.12-.5-.12-.46-.12-.42-.12-.37-.12-.33-.12-.28-.12-.24-.12-.19-.12-.14-.12-.1-.12-.05h-.12s-.12.02-.12.02l-.12.07-.12.11-.12.15-.12.19-.12.22-.12.25-.12.28-.12.31-.12.34-.12.36-.12.38-.12.39-.12.41-.12.42-.12.43-.12.43-.12.43-.12.43-.12.43-.12.43-.12.42-.12.41-.12.4-.12.39-.12.37-.12.36-.12.34-.12.32-.12.3-.12.28-.12.26-.12.23-.12.21-.12.18-.12.16-.12.13-.12.11-.12.09-.12.06-.12.04h-.12s-.12,0-.12,0l-.12-.03-.12-.05-.12-.07-.12-.09-.12-.11-.12-.13-.12-.14-.12-.16-.12-.17-.12-.18-.12-.19-.12-.2-.12-.21-.12-.21-.12-.22-.12-.22-.12-.22-.12-.22-.12-.22-.12-.22-.12-.22-.12-.21-.12-.21-.12-.2-.12-.19-.12-.19-.12-.18-.12-.17-.12-.16-.12-.15-.12-.14-.12-.12-.12-.11-.12-.1-.12-.09-.12-.08-.12-.06-.12-.05-.12-.04-.12-.03h-.12s-.12-.02-.12-.02h-.12s-.12.03-.12.03l-.12.03-.12.04-.12.05-.12.06-.12.07-.12.07-.12.08-.12.09-.12.09-.12.1-.12.1-.12.1-.12.11-.12.11-.12.11-.12.11-.12.11-.12.11-.12.11-.12.11-.12.11-.12.1-.12.1-.12.1-.12.09-.12.09-.12.08-.12.08-.12.07-.12.07-.12.06-.12.05-.12.05-.12.04-.12.04-.12.03-.12.02-.12.02h-.12s-.12.02-.12.02h-.12s-.12,0-.12,0h-.12s-.12-.03-.12-.03l-.12-.02-.12-.03-.12-.03-.12-.03-.12-.04-.12-.04-.12-.04-.12-.05-.12-.05-.12-.05-.12-.05-.12-.05-.12-.05-.12-.06-.12-.06-.12-.06-.12-.06-.12-.05-.12-.05-.12-.05-.12-.05-.12-.05-.12-.05-.12-.05-.12-.04-.12-.04-.12-.04-.12-.03-.12-.03-.12-.03-.12-.03-.12-.02-.12-.02-.12-.02h-.12s-.12-.02-.12-.02h-.12s-.12-.01-.12-.01h-.12s-.12,0-.12,0h-.12s-.12.01-.12.01h-.12s-.12.02-.12.02h-.12s-.12.03-.12.03l-.12.02-.12.02-.12.02-.12.02-.12.02-.12.02-.12.03-.12.03-.12.03-.12.03-.12.03-.12.03-.12.03-.12.03-.12.03-.12.03-.12.03-.12.03-.12.02-.12.02-.12.02-.12.02-.12.02-.12.02-.12.02-.12.02h-.12s-.12.03-.12.03h-.12s-.12.02-.12.02h-.12s-.12.01-.12.01h-.12s-.12,0-.12,0h-.12s-.12,0-.12,0h-.12s-.12,0-.12,0h-.12s-.12,0-.12,0h-.12s-.12-.01-.12-.01h-.12s-.12-.02-.12-.02h-.12s-.12-.02-.12-.02h-.12s-.12-.02-.12-.02h-.12s-.12-.03-.12-.03h-.12s-.12-.03-.12-.03h-.12s-.12-.03-.12-.03h-.12s-.12-.03-.12-.03h-.12s-.12-.03-.12-.03h-.12s-.12-.03-.12-.03h-.12s-.12-.02-.12-.02h-.12s-.12-.02-.12-.02h-.12s-.12-.02-.12-.02h-.12s-.12-.02-.12-.02h-.12s-.12-.01-.12-.01h-.12s-.12-.01-.12-.01h-.12s-.12,0-.12,0h-.12s-.03,0-.03,0l-4.93,3.76c-5.37,4.09-3.45,12.14,2.33,13.98h0c8.29,2.6,25.11,4.38,44.5,4.38s36.21-1.78,44.5-4.38h0c5.78-1.84,7.71-9.89,2.34-13.98Z"/>
  <path id="decanter" d="M112.05,92.05l-27.94-21.3h0c-5.69-4.33-9.21-10.28-9.21-16.84,0-.73.05-1.45.14-2.16h-.01l3.81-30.5-30.84-9.25,4.97,39.75h-.01c.08.71.14,1.43.14,2.16,0,6.56-3.52,12.51-9.21,16.84h0l-27.94,21.3c-6.79,5.18-4.25,15.4,3.17,17.54h0c9.03,2.64,25.75,4.41,44.88,4.41s35.84-1.77,44.88-4.4h0c7.42-2.15,9.96-12.37,3.17-17.55ZM107.7,105.77c-7.56,2.49-24.27,4.23-43.7,4.23s-36.18-1.74-43.72-4.24c-4.45-1.29-5.97-7.42-1.9-10.53l27.85-21.23h0c6.72-5.09,10.9-12.2,10.9-20.07,0-.91-.06-1.8-.17-2.68h0l-.02-.13s0-.05,0-.07l-4.18-33.42h0l21.68,6.5-3.39,27.12h0c-.11.88-.17,1.78-.17,2.68,0,7.87,4.18,14.98,10.9,20.07h0l27.85,21.23c4.08,3.11,2.54,9.27-1.93,10.54Z"/>
</svg>