<?xml version="1.0" encoding="UTF-8"?>
<svg xmlns="http://www.w3.org/2000/svg" version="1.1" viewBox="0 0 128 128">
  <defs>
    <style>
      #decanter-bg { isolation: isolate; fill-rule: evenodd; fill: #ffffff; }
      #wave { isolation: isolate; fill-rule: evenodd; fill: #b60005; }
      #decanter { isolation: isolate; fill-rule: evenodd; fill: #000000; }
    </style>
  </defs>
  <path id="decanter-bg" d="M110.84,93.64l-31.65-24.12s-.04-.03-.05-.04h0c-4.17-3.2-6.72-7.44-6.72-12.08,0-.51.04-1.02.1-1.52h0l4.14-33.12-26.27-7.88,5.12,41h0c.06.5.1,1.01.1,1.52,0,4.64-2.54,8.88-6.72,12.07h0s-31.71,24.17-31.71,24.17c-5.37,4.09-3.45,12.14,2.33,13.98h0c8.29,2.6,25.11,4.38,44.5,4.38s36.21-1.78,44.5-4.38h0c5.78-1.84,7.71-9.89,2.34-13.98Z"/>
  <path id="wave" d="M110.84,93.64l-4.93-3.76h-.41s-.5.04-.5.04l-.5.04-.5.05-.5.05-.5.05-.5.05-.5.04-.5.03h-.5s-.5,0-.5,0l-.5-.03-.5-.06-.5-.08-.5-.1-.5-.11-.5-.11-.5-.1-.5-.08-.5-.05h-.5s-.5.03-.5.03l-.5.09-.5.13-.5.18-.5.21-.5.22-.5.22-.5.19-.5.14-.5.08h-.5s-.5-.11-.5-.11l-.5-.2-.5-.3-.5-.38-.5-.43-.5-.45-.5-.42-.5-.36-.5-.25-.5-.1-.5.08-.5.28-.5.47-.5.65-.5.79-.5.87-.5.88-.5.81-.5.64-.5.4-.5.08-.5-.29-.5-.69-.5-1.07-.5-1.39-.5-1.62-.5-1.73-.5-1.68-.5-1.46-.5-1.07-.5-.53-.5.13-.5.86-.5,1.59-.5,2.24-.5,2.76-.5,3.05-.5,3.08-.5,2.8-.5,2.23-.5,1.37-.5.31-.5-.87-.5-2.05-.5-3.11-.5-3.92-.5-4.38-.5-4.43-.5-4.04-.5-3.23-.5-2.09-.5-.72-.5.72-.5,2.09-.5,3.23-.5,4.04-.5,4.43-.5,4.38-.5,3.92-.5,3.11-.5,2.05-.5.87-.5-.31-.5-1.37-.5-2.23-.5-2.8-.5-3.08-.5-3.05-.5-2.76-.5-2.24-.5-1.59-.5-.86-.5-.13-.5.53-.5,1.07-.5,1.46-.5,1.68-.5,1.73-.5,1.62-.5,1.39-.5,1.07-.5.69-.5.29-.5-.08-.5-.4-.5-.64-.5-.81-.5-.88-.5-.87-.5-.79-.5-.65-.5-.47-.5-.28-.5-.08-.5.1-.5.25-.5.36-.5.42-.5.45-.5.43-.5.38-.5.3-.5.2-.5.1h-.5s-.5-.07-.5-.07l-.5-.14-.5-.19-.5-.22-.5-.22-.5-.21-.5-.18-.5-.13-.5-.09-.5-.04h-.5s-.5.06-.5.06l-.5.08-.5.1-.5.11-.5.11-.5.1-.5.08-.5.06-.5.03h-.5s-.5,0-.5,0l-.5-.03-.5-.04-.5-.05-.5-.05-.5-.05-.5-.05-.5-.04-.5-.03h-.41s-4.93,3.75-4.93,3.75c-5.37,4.09-3.45,12.14,2.33,13.98h0c8.29,2.6,25.11,4.38,44.5,4.38s36.21-1.78,44.5-4.38h0c5.78-1.84,7.71-9.89,2.34-13.98Z"/>
  <path id="decanter" d="M112.05,92.05l-31.67-24.14h0c-3.71-2.82-5.96-6.51-5.96-10.55,0-.46.04-.9.09-1.35h0l4.34-34.75-30.84-9.25,5.5,44h0c.06.45.09.9.09,1.35,0,4.04-2.25,7.73-5.96,10.55h0s-31.67,24.15-31.67,24.15c-6.79,5.18-4.25,15.4,3.17,17.54h0c9.03,2.64,25.75,4.41,44.88,4.41s35.84-1.77,44.88-4.4h0c7.42-2.15,9.96-12.37,3.17-17.55ZM107.7,105.77c-7.56,2.49-24.27,4.23-43.7,4.23s-36.18-1.74-43.72-4.24c-4.45-1.29-5.97-7.42-1.9-10.53l31.75-24.2h0c4.64-3.58,7.48-8.36,7.48-13.61,0-.61-.04-1.2-.12-1.79h0l-4.75-38h0l21.68,6.5-3.94,31.49h0c-.07.59-.12,1.19-.12,1.79,0,5.26,2.84,10.04,7.49,13.61h0s31.75,24.21,31.75,24.21c4.08,3.11,2.54,9.27-1.93,10.54Z"/>
</svg>