<?xml version="1.0" encoding="UTF-8"?>
<svg xmlns="http://www.w3.org/2000/svg" version="1.1" viewBox="0 0 1280 512">
  <defs>
    <style>
      #decanter, #text { isolation: isolate; fill-rule: evenodd; fill: #ffffff; }
      #wave { isolation: isolate; fill-rule: evenodd; fill: #b60005; }
    </style>
  </defs>
  <path id="decanter" d="M448.18,368.19l-126.68-96.58v-.03c-14.83-11.26-23.83-26.02-23.83-42.18,0-1.82.14-3.62.37-5.4h-.03l17.37-138.99-123.37-37.01,22,176h-.02c.22,1.78.37,3.58.37,5.4,0,16.17-9.01,30.93-23.85,42.19v.03l-126.68,96.57c-27.16,20.71-17.01,61.59,12.68,70.18v.03c36.12,10.53,102.98,17.61,179.5,17.61s143.38-7.07,179.5-17.61v-.03c29.69-8.58,39.85-49.47,12.68-70.18Z"/>
  <path id="wave" d="M438.51,380.92l-48.53-36.99h-.35s-.51-.03-.51-.03l-.51-.02-.51-.02-.51-.02-.51-.02-.51-.02h-.51s-.51-.03-.51-.03h-.51s-.51-.02-.51-.02h-.51s-.51-.01-.51-.01h-.51s-.51,0-.51,0h-.51s-.51,0-.51,0h-.51s-.51.02-.51.02h-.51s-.51.03-.51.03l-.51.02-.51.02-.51.03-.51.03-.51.03-.51.03-.51.04-.51.04-.51.04-.51.04-.51.04-.51.04-.51.04-.51.04-.51.04-.51.04-.51.03-.51.03-.51.03-.51.03-.51.02-.51.02h-.51s-.51.02-.51.02h-.51s-.51,0-.51,0h-.51s-.51-.03-.51-.03l-.51-.02-.51-.03-.51-.04-.51-.04-.51-.05-.51-.06-.51-.06-.51-.07-.51-.07-.51-.08-.51-.08-.51-.08-.51-.09-.51-.09-.51-.09-.51-.09-.51-.09-.51-.08-.51-.08-.51-.08-.51-.07-.51-.06-.51-.06-.51-.05-.51-.04-.51-.03-.51-.02h-.51s-.51,0-.51,0l-.51.02-.51.03-.51.05-.51.06-.51.08-.51.09-.51.11-.51.12-.51.13-.51.14-.51.16-.51.17-.51.17-.51.18-.51.19-.51.19-.51.19-.51.19-.51.19-.51.19-.51.18-.51.17-.51.16-.51.15-.51.13-.51.11-.51.09-.51.07-.51.04-.51.02h-.51s-.51-.05-.51-.05l-.51-.07-.51-.1-.51-.13-.51-.16-.51-.19-.51-.22-.51-.25-.51-.28-.51-.31-.51-.33-.51-.36-.51-.38-.51-.39-.51-.41-.51-.42-.51-.42-.51-.42-.51-.42-.51-.41-.51-.4-.51-.38-.51-.36-.51-.33-.51-.29-.51-.26-.51-.21-.51-.16-.51-.11-.51-.06h-.51s-.51.07-.51.07l-.51.13-.51.2-.51.27-.51.34-.51.41-.51.47-.51.54-.51.6-.51.66-.51.72-.51.77-.51.81-.51.85-.51.88-.51.91-.51.92-.51.92-.51.92-.51.9-.51.88-.51.84-.51.79-.51.73-.51.66-.51.58-.51.48-.51.38-.51.27-.51.15-.51.02-.51-.12-.51-.26-.51-.4-.51-.55-.51-.7-.51-.85-.51-1-.51-1.14-.51-1.28-.51-1.41-.51-1.53-.51-1.64-.51-1.74-.51-1.82-.51-1.89-.51-1.94-.51-1.97-.51-1.98-.51-1.97-.51-1.94-.51-1.88-.51-1.8-.51-1.69-.51-1.57-.51-1.41-.51-1.24-.51-1.04-.51-.82-.51-.59-.51-.33-.51-.06-.51.22-.51.52-.51.82-.51,1.13-.51,1.44-.51,1.74-.51,2.05-.51,2.34-.51,2.62-.51,2.88-.51,3.12-.51,3.33-.51,3.52-.51,3.67-.51,3.79-.51,3.87-.51,3.91-.51,3.91-.51,3.86-.51,3.77-.51,3.63-.51,3.44-.51,3.21-.51,2.93-.51,2.6-.51,2.23-.51,1.83-.51,1.39-.51.92-.51.42-.51-.1-.51-.64-.51-1.18-.51-1.73-.51-2.27-.51-2.8-.51-3.32-.51-3.81-.51-4.26-.51-4.68-.51-5.05-.51-5.37-.51-5.64-.51-5.84-.51-5.98-.51-6.05-.51-6.04-.51-5.97-.51-5.82-.51-5.6-.51-5.32-.51-4.96-.51-4.54-.51-4.06-.51-3.53-.51-2.95-.51-2.34-.51-1.69-.51-1.03-.51-.34-.51.34-.51,1.03-.51,1.69-.51,2.34-.51,2.95-.51,3.53-.51,4.06-.51,4.54-.51,4.96-.51,5.32-.51,5.6-.51,5.82-.51,5.97-.51,6.04-.51,6.05-.51,5.98-.51,5.84-.51,5.64-.51,5.37-.51,5.05-.51,4.68-.51,4.26-.51,3.81-.51,3.32-.51,2.8-.51,2.27-.51,1.73-.51,1.18-.51.64-.51.1-.51-.42-.51-.92-.51-1.39-.51-1.83-.51-2.23-.51-2.6-.51-2.93-.51-3.21-.51-3.44-.51-3.63-.51-3.77-.51-3.86-.51-3.91-.51-3.91-.51-3.87-.51-3.79-.51-3.67-.51-3.52-.51-3.33-.51-3.12-.51-2.88-.51-2.62-.51-2.34-.51-2.05-.51-1.74-.51-1.44-.51-1.13-.51-.82-.51-.52-.51-.22-.51.06-.51.33-.51.59-.51.82-.51,1.04-.51,1.24-.51,1.41-.51,1.57-.51,1.69-.51,1.8-.51,1.88-.51,1.94-.51,1.97-.51,1.98-.51,1.97-.51,1.94-.51,1.89-.51,1.82-.51,1.74-.51,1.64-.51,1.53-.51,1.41-.51,1.28-.51,1.14-.51,1-.51.85-.51.7-.51.55-.51.4-.51.26-.51.12-.51-.02-.51-.15-.51-.27-.51-.38-.51-.48-.51-.58-.51-.66-.51-.73-.51-.79-.51-.84-.51-.88-.51-.9-.51-.92-.51-.92-.51-.92-.51-.91-.51-.88-.51-.85-.51-.81-.51-.77-.51-.72-.51-.66-.51-.6-.51-.54-.51-.47-.51-.41-.51-.34-.51-.27-.51-.2-.51-.13-.51-.07h-.51s-.51.05-.51.05l-.51.11-.51.16-.51.21-.51.26-.51.29-.51.33-.51.36-.51.38-.51.4-.51.41-.51.42-.51.42-.51.42-.51.42-.51.41-.51.39-.51.38-.51.36-.51.33-.51.31-.51.28-.51.25-.51.22-.51.19-.51.16-.51.13-.51.1-.51.07-.51.04h-.51s-.51,0-.51,0l-.51-.04-.51-.07-.51-.09-.51-.11-.51-.13-.51-.15-.51-.16-.51-.17-.51-.18-.51-.19-.51-.19-.51-.19-.51-.19-.51-.19-.51-.19-.51-.18-.51-.17-.51-.17-.51-.16-.51-.14-.51-.13-.51-.12-.51-.11-.51-.09-.51-.08-.51-.06-.51-.05-.51-.03-.51-.02h-.51s-.51,0-.51,0l-.51.02-.51.03-.51.04-.51.05-.51.06-.51.06-.51.07-.51.08-.51.08-.51.08-.51.09-.51.09-.51.09-.51.09-.51.09-.51.08-.51.08-.51.08-.51.07-.51.07-.51.06-.51.06-.51.05-.51.04-.51.04-.51.03-.51.02-.51.02h-.51s-.51.02-.51.02h-.51s-.51,0-.51,0h-.51s-.51-.03-.51-.03l-.51-.02-.51-.03-.51-.03-.51-.03-.51-.03-.51-.04-.51-.04-.51-.04-.51-.04-.51-.04-.51-.04-.51-.04-.51-.04-.51-.04-.51-.04-.51-.03-.51-.03-.51-.03-.51-.03-.51-.02-.51-.02-.51-.02h-.51s-.51-.03-.51-.03h-.51s-.51-.01-.51-.01h-.51s-.51,0-.51,0h-.51s-.51,0-.51,0h-.51s-.51.02-.51.02h-.51s-.51.02-.51.02h-.51s-.51.03-.51.03l-.51.02-.51.02-.51.02-.51.02-.51.02h-.34s-48.53,37-48.53,37c-16.3,12.42-10.21,36.95,7.6,42.11,30.17,9.99,97.11,16.95,174.9,16.95s144.56-6.94,174.78-16.91c17.91-5.07,24.06-29.69,7.73-42.14Z"/>
  <path id="text" d="M546.09,175.92h-26c-1.46,0-2.19.81-2.19,2.43v154.3c0,1.62.81,2.43,2.43,2.43h26.97c16.68,0,29.04-5.83,37.06-17.5,8.02-11.66,12.03-29.56,12.03-53.7v-23.33c0-21.87-4.13-38.11-12.39-48.72-8.26-10.61-20.9-15.92-37.91-15.92ZM577.68,264.86c0,18.31-2.43,31.63-7.29,39.97-4.86,8.35-12.88,12.51-24.06,12.51h-9.72v-123.69h8.75c11.5,0,19.76,3.73,24.79,11.18,5.02,7.45,7.53,19.2,7.53,35.23v24.79ZM676.1,230.11h15.07c.81,0,1.37-.73,1.7-2.19,1.29-11.01.65-20.49-1.94-28.43-2.59-7.94-6.93-14.09-13-18.47-6.08-4.37-13.81-6.56-23.21-6.56-12.96,0-22.8,4.09-29.52,12.27-6.72,8.18-10.08,20.53-10.08,37.06v63.42c0,16.69,3.36,29.08,10.08,37.18,6.72,8.1,16.56,12.15,29.52,12.15,13.77,0,23.89-4.65,30.37-13.97,6.48-9.31,9.15-22.31,8.02-39-.16-1.78-.97-2.67-2.43-2.67h-14.09c-1.62,0-2.27.89-1.94,2.67.81,10.86-.28,19.44-3.28,25.76-3,6.32-8.55,9.48-16.65,9.48-6.8,0-12.03-2.59-15.67-7.78-3.65-5.18-5.47-13.52-5.47-25.03v-61.24c0-11.5,1.78-19.8,5.35-24.91,3.56-5.1,8.83-7.65,15.8-7.65,7.61,0,13,3,16.16,8.99,3.16,6,4.25,14.74,3.28,26.24-.33,1.78.32,2.67,1.94,2.67ZM759.21,177.62c-.16-1.13-.89-1.7-2.19-1.7h-20.17c-1.3,0-2.03.57-2.19,1.7l-31.83,154.79c-.32,1.78.16,2.67,1.46,2.67h16.04c1.13,0,1.78-.57,1.94-1.7l6.59-36.21h35.92l6.58,36.21c.32,1.14,1.05,1.7,2.19,1.7h16.28c1.13,0,1.62-.89,1.46-2.67l-32.08-154.79ZM732,279.92l8.98-49.33c1.13-5.83,2.15-11.54,3.04-17.13.89-5.59,1.74-11.14,2.55-16.65h.49c.65,5.51,1.5,11.06,2.55,16.65,1.05,5.59,2.07,11.22,3.04,16.89l9,49.57h-29.65ZM882.16,175.92h-14.09c-1.14,0-1.7.73-1.7,2.19v86.02c0,3.24.04,6.89.12,10.93.08,4.05.16,8.18.24,12.39.08,4.21.2,8.3.36,12.27.16,3.97.32,7.57.49,10.81h-.49c-.65-4.05-1.58-8.71-2.79-13.97-1.21-5.26-2.47-10.49-3.77-15.67-1.3-5.18-2.59-9.88-3.89-14.09l-25.03-89.42c-.16-.97-.81-1.46-1.94-1.46h-22.36c-1.3,0-1.94.81-1.94,2.43v154.3c0,1.62.57,2.43,1.7,2.43h14.58c1.13,0,1.7-.81,1.7-2.43v-82.62c0-4.7-.04-10-.12-15.92-.08-5.91-.2-11.79-.36-17.62-.16-5.83-.33-11.09-.49-15.79h.49c1.46,6.64,3.04,13.93,4.74,21.87,1.7,7.94,3.68,16.04,5.95,24.3l24.54,86.75c.32.97.97,1.46,1.94,1.46h22.36c1.13,0,1.7-.81,1.7-2.43v-154.55c0-1.46-.65-2.19-1.94-2.19ZM971.59,175.92h-69.5c-1.46,0-2.19.81-2.19,2.43v12.88c0,1.62.73,2.43,2.19,2.43h25.51v139c0,1.62.57,2.43,1.7,2.43h14.82c1.29,0,1.94-.81,1.94-2.43v-139h25.52c1.29,0,1.94-.81,1.94-2.43v-12.88c0-1.62-.65-2.43-1.94-2.43ZM1077.54,317.34h-39.12v-139c0-1.62-.65-2.43-1.94-2.43h-14.82c-1.3,0-1.94.81-1.94,2.43v154.3c0,1.62.65,2.43,1.94,2.43h55.89c1.46,0,2.19-.81,2.19-2.43v-12.88c0-1.62-.73-2.43-2.19-2.43ZM1151.77,322.2c-.08-4.53-.12-10.04-.12-16.52v-57.83c0-12.15-2.23-20.65-6.68-25.52-4.46-4.86-11.87-7.29-22.23-7.29s-17.74,2.76-22.6,8.26c-4.86,5.51-6.89,13.29-6.07,23.33.16,1.94,1.05,2.92,2.67,2.92h12.88c1.29,0,1.94-.73,1.94-2.19-.49-5.51.12-9.48,1.82-11.91s4.65-3.65,8.87-3.65,7.29,1.18,8.75,3.52c1.46,2.35,2.19,6.6,2.19,12.76v17.23l-11.18,1.24c-11.18,1.3-19.2,5.27-24.06,11.91-4.86,6.64-7.29,15.47-7.29,26.49,0,10.05,1.78,17.82,5.35,23.33,3.56,5.51,8.51,8.26,14.82,8.26,5.02,0,9.36-1.34,13-4.01,3.16-2.32,6.84-5.95,11.03-10.88,0,.11.01.21.02.31.32,4.37.65,8.02.97,10.93.16,1.46.81,2.19,1.94,2.19h13.12c1.13,0,1.62-.89,1.46-2.67-.33-2.27-.53-5.67-.61-10.21ZM1133.18,308.19c-3.03,3.82-5.63,6.6-7.78,8.3-2.76,2.19-5.43,3.28-8.02,3.28-2.76,0-4.9-1.46-6.44-4.37-1.54-2.92-2.31-6.96-2.31-12.15,0-7.13,1.34-12.59,4.01-16.4,2.67-3.8,6.68-6.03,12.03-6.68l8.51-1.19v29.21ZM1225.77,222.21c-3.4-4.78-8.67-7.17-15.8-7.17-5.02,0-9.96,1.54-14.82,4.62-3.49,2.21-6.89,5.05-10.21,8.51v-56.62c0-1.62-.57-2.43-1.7-2.43h-14.82c-1.3,0-1.94.81-1.94,2.43v160.38c5.83.65,11.34,1.58,16.52,2.79,5.18,1.22,10.77,1.82,16.77,1.82,10.69,0,18.55-3.12,23.57-9.36,5.02-6.23,7.53-16.65,7.53-31.23v-51.27c0-10.21-1.7-17.7-5.1-22.48ZM1212.4,295.23c0,9.07-1.14,15.35-3.4,18.83-2.27,3.49-5.92,5.22-10.94,5.22-2.11,0-4.29-.2-6.56-.61-2.27-.4-4.46-.77-6.56-1.09v-73.23c2.53-3.11,5.08-5.72,7.65-7.81,3.48-2.83,6.93-4.25,10.33-4.25s5.63,1.14,7.17,3.4c1.54,2.27,2.31,5.92,2.31,10.93v48.6Z"/>
</svg>