<?xml version="1.0" encoding="UTF-8"?>
<svg xmlns="http://www.w3.org/2000/svg" version="1.1" viewBox="0 0 320 128">
  <defs>
    <style>
      #decanter, #text { isolation: isolate; fill-rule: evenodd; fill: #ffffff; }
      #wave { isolation: isolate; fill-rule: evenodd; fill: #b60005; }
    </style>
  </defs>
  <path id="decanter" d="M112.05,92.05l-27.94-21.3h0c-5.69-4.33-9.21-10.28-9.21-16.84,0-.73.05-1.45.14-2.16h-.01l3.81-30.5-30.84-9.25,4.97,39.75h-.01c.08.71.14,1.43.14,2.16,0,6.56-3.52,12.51-9.21,16.84h0l-27.94,21.3c-6.79,5.18-4.25,15.4,3.17,17.54h0c9.03,2.64,25.75,4.41,44.88,4.41s35.84-1.77,44.88-4.4h0c7.42-2.15,9.96-12.37,3.17-17.55Z"/>
  <path id="wave" d="M109.63,95.23l-6.71-5.11-.42.04-.5.04-.5.03h-.5s-.5,0-.5,0l-.5-.03-.5-.06-.5-.08-.5-.1-.5-.11-.5-.11-.5-.1-.5-.08-.5-.05h-.5s-.5.03-.5.03l-.5.09-.5.13-.5.18-.5.21-.5.22-.5.22-.5.19-.5.14-.5.08h-.5s-.5-.11-.5-.11l-.5-.2-.5-.3-.5-.38-.5-.43-.5-.45-.5-.42-.5-.36-.5-.25-.5-.1-.5.08-.5.28-.5.47-.5.65-.5.79-.5.87-.5.88-.5.81-.5.64-.5.4-.5.08-.5-.29-.5-.69-.5-1.07-.5-1.39-.5-1.62-.5-1.73-.5-1.68-.5-1.46-.5-1.07-.5-.53-.5.13-.5.86-.5,1.59-.5,2.24-.5,2.76-.5,3.05-.5,3.08-.5,2.8-.5,2.23-.5,1.37-.5.31-.5-.87-.5-2.05-.5-3.11-.5-3.92-.5-4.38-.5-4.43-.5-4.04-.5-3.23-.5-2.09-.5-.72-.5.72-.5,2.09-.5,3.23-.5,4.04-.5,4.43-.5,4.38-.5,3.92-.5,3.11-.5,2.05-.5.87-.5-.31-.5-1.37-.5-2.23-.5-2.8-.5-3.08-.5-3.05-.5-2.76-.5-2.24-.5-1.59-.5-.86-.5-.13-.5.53-.5,1.07-.5,1.46-.5,1.68-.5,1.73-.5,1.62-.5,1.39-.5,1.07-.5.69-.5.29-.5-.08-.5-.4-.5-.64-.5-.81-.5-.88-.5-.87-.5-.79-.5-.65-.5-.47-.5-.28-.5-.08-.5.1-.5.25-.5.36-.5.42-.5.45-.5.43-.5.38-.5.3-.5.2-.5.1h-.5s-.5-.07-.5-.07l-.5-.14-.5-.19-.5-.22-.5-.22-.5-.21-.5-.18-.5-.13-.5-.09-.5-.04h-.5s-.5.06-.5.06l-.5.08-.5.1-.5.11-.5.11-.5.1-.5.08-.5.06-.5.03h-.5s-.5,0-.5,0l-.5-.03-.5-.04-.42-.04-6.71,5.11c-4.07,3.11-2.55,9.24,1.9,10.53,7.54,2.5,24.28,4.24,43.72,4.24s36.14-1.73,43.7-4.23c4.48-1.27,6.02-7.42,1.93-10.54Z"/>
  <path id="text" d="M136.52,43.98h-6.5c-.36,0-.55.2-.55.61v38.58c0,.41.2.61.61.61h6.74c4.17,0,7.26-1.46,9.26-4.37,2-2.92,3.01-7.39,3.01-13.43v-5.83c0-5.47-1.03-9.53-3.1-12.18-2.07-2.65-5.22-3.98-9.48-3.98ZM144.42,66.21c0,4.58-.61,7.91-1.82,9.99-1.22,2.09-3.22,3.13-6.01,3.13h-2.43v-30.92h2.19c2.88,0,4.94.93,6.2,2.79,1.25,1.86,1.88,4.8,1.88,8.81v6.2ZM169.03,57.53h3.77c.2,0,.34-.18.43-.55.32-2.75.16-5.12-.49-7.11-.65-1.98-1.73-3.52-3.25-4.62-1.52-1.09-3.45-1.64-5.8-1.64-3.24,0-5.7,1.02-7.38,3.07-1.68,2.05-2.52,5.13-2.52,9.26v15.86c0,4.17.84,7.27,2.52,9.29,1.68,2.03,4.14,3.04,7.38,3.04,3.44,0,5.97-1.16,7.59-3.49,1.62-2.33,2.29-5.58,2-9.75-.04-.45-.24-.67-.61-.67h-3.52c-.41,0-.57.22-.49.67.2,2.71-.07,4.86-.82,6.44-.75,1.58-2.14,2.37-4.16,2.37-1.7,0-3.01-.65-3.92-1.94-.91-1.3-1.37-3.38-1.37-6.26v-15.31c0-2.88.45-4.95,1.34-6.23.89-1.28,2.21-1.91,3.95-1.91,1.9,0,3.25.75,4.04,2.25.79,1.5,1.06,3.69.82,6.56-.08.45.08.67.49.67ZM189.25,43.98h-5.04c-.32,0-.51.14-.55.43l-7.96,38.7c-.08.45.04.67.36.67h4.01c.28,0,.45-.14.49-.43l1.65-9.05h8.98l1.64,9.05c.08.28.26.43.55.43h4.07c.28,0,.4-.22.36-.67l-8.02-38.7c-.04-.28-.22-.43-.55-.43ZM183,69.98l2.24-12.33c.28-1.46.54-2.89.76-4.28.22-1.4.43-2.78.64-4.16h.12c.16,1.38.37,2.76.64,4.16.26,1.4.52,2.8.76,4.22l2.25,12.39h-7.41ZM220.54,43.98h-3.52c-.28,0-.43.18-.43.55v21.51c0,.81,0,1.72.03,2.73.02,1.01.04,2.05.06,3.1.02,1.05.05,2.08.09,3.07.04.99.08,1.89.12,2.7h-.12c-.16-1.01-.39-2.18-.7-3.49-.3-1.32-.62-2.62-.94-3.92-.32-1.3-.65-2.47-.97-3.52l-6.26-22.36c-.04-.24-.2-.36-.49-.36h-5.59c-.32,0-.49.2-.49.61v38.58c0,.41.14.61.43.61h3.64c.28,0,.43-.2.43-.61v-20.66c0-1.17-.01-2.5-.03-3.98-.02-1.48-.05-2.95-.09-4.4-.04-1.46-.08-2.77-.12-3.95h.12c.36,1.66.76,3.48,1.18,5.47.43,1.98.92,4.01,1.49,6.08l6.14,21.69c.08.24.24.36.49.36h5.59c.28,0,.43-.2.43-.61v-38.64c0-.36-.16-.55-.49-.55ZM242.9,43.98h-17.37c-.36,0-.55.2-.55.61v3.22c0,.41.18.61.55.61h6.38v34.75c0,.41.14.61.43.61h3.71c.32,0,.49-.2.49-.61v-34.75h6.38c.32,0,.49-.2.49-.61v-3.22c0-.4-.16-.61-.49-.61ZM269.38,79.34h-9.78v-34.75c0-.4-.16-.61-.49-.61h-3.71c-.32,0-.49.2-.49.61v38.58c0,.41.16.61.49.61h13.97c.36,0,.55-.2.55-.61v-3.22c0-.4-.18-.61-.55-.61ZM287.91,76.42v-14.46c0-3.04-.56-5.16-1.67-6.38-1.11-1.21-2.97-1.82-5.56-1.82s-4.43.69-5.65,2.07c-1.21,1.38-1.72,3.32-1.52,5.83.04.49.26.73.67.73h3.22c.32,0,.49-.18.49-.55-.12-1.38.03-2.37.46-2.98.43-.61,1.16-.91,2.22-.91s1.82.29,2.19.88c.36.59.55,1.65.55,3.19v4.31l-2.79.31c-2.79.32-4.8,1.32-6.01,2.98-1.22,1.66-1.82,3.87-1.82,6.62,0,2.51.45,4.46,1.34,5.83.89,1.38,2.13,2.07,3.71,2.07,1.25,0,2.34-.33,3.25-1,.79-.58,1.71-1.5,2.76-2.73,0,.03,0,.06,0,.09.08,1.09.16,2,.24,2.73.04.36.2.55.49.55h3.28c.28,0,.4-.22.36-.67-.08-.57-.13-1.42-.15-2.55-.02-1.13-.03-2.51-.03-4.13ZM283.3,77.04c-.76.95-1.41,1.65-1.94,2.08-.69.55-1.36.82-2,.82-.69,0-1.23-.36-1.61-1.09-.39-.73-.58-1.74-.58-3.04,0-1.78.33-3.15,1-4.1.67-.95,1.67-1.51,3.01-1.67l2.13-.3v7.3ZM306.44,55.55c-.85-1.19-2.17-1.79-3.95-1.79-1.26,0-2.49.39-3.71,1.15-.87.55-1.72,1.27-2.55,2.13v-14.16c0-.4-.14-.61-.43-.61h-3.71c-.32,0-.49.2-.49.61v40.09c1.46.16,2.83.39,4.13.7,1.3.3,2.69.46,4.19.46,2.67,0,4.64-.78,5.89-2.34,1.25-1.56,1.88-4.16,1.88-7.81v-12.82c0-2.55-.43-4.42-1.28-5.62ZM303.1,73.81c0,2.27-.28,3.84-.85,4.71-.57.87-1.48,1.31-2.73,1.31-.53,0-1.07-.05-1.64-.15-.57-.1-1.11-.19-1.64-.27v-18.31c.63-.78,1.27-1.43,1.91-1.95.87-.71,1.73-1.06,2.58-1.06s1.41.28,1.79.85c.38.57.58,1.48.58,2.73v12.15Z"/>
</svg>