<?xml version="1.0" encoding="UTF-8"?>
<svg xmlns="http://www.w3.org/2000/svg" version="1.1" viewBox="0 0 1280 512">
  <defs>
    <style>
      #decanter-bg { isolation: isolate; fill-rule: evenodd; fill: #ffffff; }
      #wave { isolation: isolate; fill-rule: evenodd; fill: #b60005; }
      #decanter, #text { isolation: isolate; fill-rule: evenodd; fill: #000000; }
    </style>
  </defs>
  <path id="decanter-bg" d="M443.35,374.55l-126.59-96.49c-.07-.05-.14-.11-.21-.16l-.04-.03h0c-16.7-12.77-26.87-29.71-26.87-48.3,0-2.05.15-4.07.4-6.07h-.02l16.56-132.48-105.06-31.52,20.5,164h-.04c.24,2,.4,4.03.4,6.07,0,18.58-10.17,35.51-26.86,48.29v.02l-126.84,96.67c-21.49,16.38-13.79,48.55,9.34,55.91h0c33.17,10.41,100.43,17.53,178,17.53s144.83-7.12,178-17.52h0c23.14-7.37,30.84-39.54,9.35-55.92Z"/>
  <path id="wave" d="M443.35,374.55l-39.99-30.48h-.41s-.51.01-.51.01h-.51s-.51.01-.51.01h-.51s-.51,0-.51,0h-.51s-.51,0-.51,0h-.51s-.51,0-.51,0h-.51s-.51,0-.51,0h-.51s-.51,0-.51,0h-.51s-.51-.02-.51-.02h-.51s-.51-.02-.51-.02h-.51s-.51-.03-.51-.03h-.51s-.51-.03-.51-.03l-.51-.02-.51-.02-.51-.02-.51-.02-.51-.02-.51-.02-.51-.02-.51-.02-.51-.02-.51-.02-.51-.02h-.51s-.51-.03-.51-.03h-.51s-.51-.02-.51-.02h-.51s-.51-.01-.51-.01h-.51s-.51,0-.51,0h-.51s-.51,0-.51,0h-.51s-.51.02-.51.02h-.51s-.51.03-.51.03l-.51.02-.51.02-.51.03-.51.03-.51.03-.51.03-.51.04-.51.04-.51.04-.51.04-.51.04-.51.04-.51.04-.51.04-.51.04-.51.04-.51.03-.51.03-.51.03-.51.03-.51.02-.51.02h-.51s-.51.02-.51.02h-.51s-.51,0-.51,0h-.51s-.51-.03-.51-.03l-.51-.02-.51-.03-.51-.04-.51-.04-.51-.05-.51-.06-.51-.06-.51-.07-.51-.07-.51-.08-.51-.08-.51-.08-.51-.09-.51-.09-.51-.09-.51-.09-.51-.09-.51-.08-.51-.08-.51-.08-.51-.07-.51-.06-.51-.06-.51-.05-.51-.04-.51-.03-.51-.02h-.51s-.51,0-.51,0l-.51.02-.51.03-.51.05-.51.06-.51.08-.51.09-.51.11-.51.12-.51.13-.51.14-.51.16-.51.17-.51.17-.51.18-.51.19-.51.19-.51.19-.51.19-.51.19-.51.19-.51.18-.51.17-.51.16-.51.15-.51.13-.51.11-.51.09-.51.07-.51.04-.51.02h-.51s-.51-.05-.51-.05l-.51-.07-.51-.1-.51-.13-.51-.16-.51-.19-.51-.22-.51-.25-.51-.28-.51-.31-.51-.33-.51-.36-.51-.38-.51-.39-.51-.41-.51-.42-.51-.42-.51-.42-.51-.42-.51-.41-.51-.4-.51-.38-.51-.36-.51-.33-.51-.29-.51-.26-.51-.21-.51-.16-.51-.11-.51-.06h-.51s-.51.07-.51.07l-.51.13-.51.2-.51.27-.51.34-.51.41-.51.47-.51.54-.51.6-.51.66-.51.72-.51.77-.51.81-.51.85-.51.88-.51.91-.51.92-.51.92-.51.92-.51.9-.51.88-.51.84-.51.79-.51.73-.51.66-.51.58-.51.48-.51.38-.51.27-.51.15-.51.02-.51-.12-.51-.26-.51-.4-.51-.55-.51-.7-.51-.85-.51-1-.51-1.14-.51-1.28-.51-1.41-.51-1.53-.51-1.64-.51-1.74-.51-1.82-.51-1.89-.51-1.94-.51-1.97-.51-1.98-.51-1.97-.51-1.94-.51-1.88-.51-1.8-.51-1.69-.51-1.57-.51-1.41-.51-1.24-.51-1.04-.51-.82-.51-.59-.51-.33-.51-.06-.51.22-.51.52-.51.82-.51,1.13-.51,1.44-.51,1.74-.51,2.05-.51,2.34-.51,2.62-.51,2.88-.51,3.12-.51,3.33-.51,3.52-.51,3.67-.51,3.79-.51,3.87-.51,3.91-.51,3.91-.51,3.86-.51,3.77-.51,3.63-.51,3.44-.51,3.21-.51,2.93-.51,2.6-.51,2.23-.51,1.83-.51,1.39-.51.92-.51.42-.51-.1-.51-.64-.51-1.18-.51-1.73-.51-2.27-.51-2.8-.51-3.32-.51-3.81-.51-4.26-.51-4.68-.51-5.05-.51-5.37-.51-5.64-.51-5.84-.51-5.98-.51-6.05-.51-6.04-.51-5.97-.51-5.82-.51-5.6-.51-5.32-.51-4.96-.51-4.54-.51-4.06-.51-3.53-.51-2.95-.51-2.34-.51-1.69-.51-1.03-.51-.34-.51.34-.51,1.03-.51,1.69-.51,2.34-.51,2.95-.51,3.53-.51,4.06-.51,4.54-.51,4.96-.51,5.32-.51,5.6-.51,5.82-.51,5.97-.51,6.04-.51,6.05-.51,5.98-.51,5.84-.51,5.64-.51,5.37-.51,5.05-.51,4.68-.51,4.26-.51,3.81-.51,3.32-.51,2.8-.51,2.27-.51,1.73-.51,1.18-.51.64-.51.1-.51-.42-.51-.92-.51-1.39-.51-1.83-.51-2.23-.51-2.6-.51-2.93-.51-3.21-.51-3.44-.51-3.63-.51-3.77-.51-3.86-.51-3.91-.51-3.91-.51-3.87-.51-3.79-.51-3.67-.51-3.52-.51-3.33-.51-3.12-.51-2.88-.51-2.62-.51-2.34-.51-2.05-.51-1.74-.51-1.44-.51-1.13-.51-.82-.51-.52-.51-.22-.51.06-.51.33-.51.59-.51.82-.51,1.04-.51,1.24-.51,1.41-.51,1.57-.51,1.69-.51,1.8-.51,1.88-.51,1.94-.51,1.97-.51,1.98-.51,1.97-.51,1.94-.51,1.89-.51,1.82-.51,1.74-.51,1.64-.51,1.53-.51,1.41-.51,1.28-.51,1.14-.51,1-.51.85-.51.7-.51.55-.51.4-.51.26-.51.12-.51-.02-.51-.15-.51-.27-.51-.38-.51-.48-.51-.58-.51-.66-.51-.73-.51-.79-.51-.84-.51-.88-.51-.9-.51-.92-.51-.92-.51-.92-.51-.91-.51-.88-.51-.85-.51-.81-.51-.77-.51-.72-.51-.66-.51-.6-.51-.54-.51-.47-.51-.41-.51-.34-.51-.27-.51-.2-.51-.13-.51-.07h-.51s-.51.05-.51.05l-.51.11-.51.16-.51.21-.51.26-.51.29-.51.33-.51.36-.51.38-.51.4-.51.41-.51.42-.51.42-.51.42-.51.42-.51.41-.51.39-.51.38-.51.36-.51.33-.51.31-.51.28-.51.25-.51.22-.51.19-.51.16-.51.13-.51.1-.51.07-.51.04h-.51s-.51,0-.51,0l-.51-.04-.51-.07-.51-.09-.51-.11-.51-.13-.51-.15-.51-.16-.51-.17-.51-.18-.51-.19-.51-.19-.51-.19-.51-.19-.51-.19-.51-.19-.51-.18-.51-.17-.51-.17-.51-.16-.51-.14-.51-.13-.51-.12-.51-.11-.51-.09-.51-.08-.51-.06-.51-.05-.51-.03-.51-.02h-.51s-.51,0-.51,0l-.51.02-.51.03-.51.04-.51.05-.51.06-.51.06-.51.07-.51.08-.51.08-.51.08-.51.09-.51.09-.51.09-.51.09-.51.09-.51.08-.51.08-.51.08-.51.07-.51.07-.51.06-.51.06-.51.05-.51.04-.51.04-.51.03-.51.02-.51.02h-.51s-.51.02-.51.02h-.51s-.51,0-.51,0h-.51s-.51-.03-.51-.03l-.51-.02-.51-.03-.51-.03-.51-.03-.51-.03-.51-.04-.51-.04-.51-.04-.51-.04-.51-.04-.51-.04-.51-.04-.51-.04-.51-.04-.51-.04-.51-.03-.51-.03-.51-.03-.51-.03-.51-.02-.51-.02-.51-.02h-.51s-.51-.03-.51-.03h-.51s-.51-.01-.51-.01h-.51s-.51,0-.51,0h-.51s-.51,0-.51,0h-.51s-.51.02-.51.02h-.51s-.51.02-.51.02h-.51s-.51.03-.51.03l-.51.02-.51.02-.51.02-.51.02-.51.02-.51.02-.51.02-.51.02-.51.02-.51.02-.51.02h-.51s-.51.03-.51.03h-.51s-.51.02-.51.02h-.51s-.51.02-.51.02h-.51s-.51.01-.51.01h-.51s-.51,0-.51,0h-.51s-.51,0-.51,0h-.51s-.51,0-.51,0h-.51s-.51,0-.51,0h-.51s-.51-.01-.51-.01h-.51s-.51-.01-.51-.01h-.4s-39.99,30.47-39.99,30.47c-21.49,16.38-13.79,48.55,9.34,55.91h0c33.17,10.41,100.43,17.53,178,17.53s144.83-7.12,178-17.52h0c23.14-7.37,30.84-39.54,9.35-55.92Z"/>
  <path id="decanter" d="M448.18,368.19l-126.68-96.58v-.03c-14.83-11.26-23.83-26.02-23.83-42.18,0-1.82.14-3.62.37-5.4h-.03l17.37-138.99-123.37-37.01,22,176h-.02c.22,1.78.37,3.58.37,5.4,0,16.17-9.01,30.93-23.85,42.19v.03l-126.68,96.57c-27.16,20.71-17.01,61.59,12.68,70.18v.03c36.12,10.53,102.98,17.61,179.5,17.61s143.38-7.07,179.5-17.61v-.03c29.69-8.58,39.85-49.47,12.68-70.18ZM430.78,423.06c-30.23,9.97-97.1,16.91-174.78,16.91s-144.72-6.95-174.9-16.95c-17.81-5.15-23.9-29.69-7.6-42.11l127-96.8v-.03c18.56-14.28,29.93-33.39,29.93-54.42,0-2.42-.18-4.81-.47-7.17h.04l-19-151.99h.02l86.73,26.02-15.75,125.97h.02c-.29,2.36-.47,4.74-.47,7.16,0,21.03,11.37,40.15,29.94,54.43v.03l127.01,96.81c16.34,12.45,10.18,37.07-7.73,42.14Z"/>
  <path id="text" d="M542.87,175.92h-28.05c-1.57,0-2.36.81-2.36,2.43v154.3c0,1.62.78,2.43,2.36,2.43h29.23c16.5,0,28.83-5.87,37.01-17.62,8.17-11.74,12.26-29.68,12.26-53.82v-22.11c0-22.19-4.17-38.67-12.49-49.45-8.33-10.77-20.98-16.16-37.95-16.16ZM571.39,264.61c0,17.17-2.2,29.73-6.6,37.66-4.4,7.94-11.63,11.91-21.69,11.91h-8.72v-117.37h8.01c10.21,0,17.6,3.57,22.16,10.69,4.56,7.13,6.84,18.31,6.84,33.53v23.57ZM670.39,231.32h18.15c.94,0,1.57-.81,1.89-2.43,1.26-11.18.51-20.81-2.24-28.92-2.75-8.1-7.27-14.38-13.55-18.83-6.29-4.45-14.22-6.68-23.81-6.68-13.36,0-23.53,4.25-30.52,12.76-6.99,8.51-10.49,21.26-10.49,38.27v60.02c0,17.34,3.5,30.17,10.49,38.52,6.99,8.35,17.17,12.51,30.52,12.51,14.3,0,24.79-4.78,31.47-14.34,6.68-9.56,9.47-22.84,8.37-39.85-.32-1.78-1.18-2.67-2.59-2.67h-17.21c-1.57,0-2.2.89-1.89,2.67.63,10.21-.35,18.31-2.95,24.3-2.59,6-7.66,8.99-15.2,8.99-6.29,0-11.04-2.47-14.26-7.41-3.22-4.94-4.83-13-4.83-24.18v-57.35c0-11.18,1.57-19.2,4.71-24.06,3.14-4.86,7.93-7.29,14.38-7.29,6.91,0,11.79,2.84,14.61,8.51,2.83,5.67,3.85,13.85,3.06,24.54-.32,1.94.31,2.92,1.89,2.92ZM758.78,177.86c-.16-1.29-.94-1.94-2.36-1.94h-23.57c-1.41,0-2.2.65-2.36,1.94l-31.35,154.55c-.15,1.78.39,2.67,1.65,2.67h19.33c1.26,0,1.96-.65,2.12-1.94l5.82-34.26h32.97l5.75,34.51c.31,1.14,1.02,1.7,2.12,1.7h19.56c1.41,0,1.96-.97,1.65-2.92l-31.35-154.3ZM731.41,279.19l7.8-45.93c1.1-5.67,2.04-11.3,2.83-16.89.78-5.59,1.49-11.22,2.12-16.89h.47c.78,5.67,1.61,11.3,2.47,16.89.86,5.59,1.85,11.14,2.95,16.65l7.7,46.17h-26.35ZM882.05,175.92h-16.74c-1.26,0-1.89.81-1.89,2.43v78.25c0,3.24.04,6.97.12,11.18.08,4.21.2,8.51.35,12.88.15,4.37.31,8.67.47,12.88.15,4.21.39,7.94.71,11.18h-.47c-.79-4.05-1.73-8.63-2.83-13.73-1.1-5.1-2.28-10.21-3.54-15.31-1.26-5.1-2.44-9.76-3.54-13.97l-22.63-84.08c-.32-1.13-1.1-1.7-2.36-1.7h-24.75c-1.26,0-1.89.81-1.89,2.43v154.3c0,1.62.63,2.43,1.89,2.43h16.97c1.26,0,1.89-.81,1.89-2.43v-75.09c0-4.7-.08-10.12-.24-16.28-.16-6.15-.32-12.27-.47-18.35-.16-6.08-.39-11.46-.71-16.16h.47c1.41,6.48,2.91,13.57,4.48,21.26,1.57,7.7,3.45,15.51,5.66,23.45l22.39,82.13c.31.97,1.02,1.46,2.12,1.46h24.51c1.41,0,2.12-.81,2.12-2.43v-154.3c0-1.62-.71-2.43-2.12-2.43ZM971.86,175.92h-71.18c-1.41,0-2.12.81-2.12,2.43v15.79c0,1.78.71,2.67,2.12,2.67h24.51v135.84c0,1.62.71,2.43,2.12,2.43h17.68c1.41,0,2.12-.81,2.12-2.43v-135.84h24.75c1.26,0,1.89-.89,1.89-2.67v-15.79c0-1.62-.63-2.43-1.89-2.43ZM1077.46,314.18h-37.71v-135.84c0-1.62-.71-2.43-2.12-2.43h-17.68c-1.41,0-2.12.81-2.12,2.43v154.3c0,1.62.71,2.43,2.12,2.43h57.51c1.41,0,2.12-.81,2.12-2.43v-15.79c0-1.78-.71-2.67-2.12-2.67ZM1153.12,321.96c-.16-4.37-.24-9.96-.24-16.77v-57.11c0-12.15-2.36-20.78-7.07-25.88-4.71-5.1-12.42-7.65-23.1-7.65s-18.35,2.88-23.45,8.63c-5.11,5.75-7.27,13.89-6.48,24.42.15,1.94,1.1,2.92,2.83,2.92h15.09c1.57,0,2.28-.81,2.12-2.43-.47-5.18,0-8.95,1.41-11.3,1.41-2.35,4.01-3.52,7.78-3.52s6.28,1.06,7.54,3.16c1.26,2.11,1.89,6,1.89,11.66v16.8l-10.84,1.42c-11.16,1.3-19.17,5.22-24.04,11.79-4.87,6.56-7.31,15.43-7.31,26.61,0,10.05,1.8,17.86,5.42,23.45,3.61,5.59,8.64,8.38,15.09,8.38,4.87,0,9.23-1.34,13.08-4.01,3.27-2.27,6.91-5.93,10.92-10.95.01.17.02.33.04.5.31,4.29.63,7.82.94,10.57.31,1.62,1.02,2.43,2.12,2.43h15.32c1.26,0,1.73-.89,1.41-2.67-.16-2.59-.32-6.08-.47-10.45ZM1131.44,307.79c-2.31,3.07-4.36,5.33-6.13,6.76-2.52,2.03-4.95,3.04-7.31,3.04-2.52,0-4.44-1.34-5.77-4.01-1.34-2.67-2-6.52-2-11.54,0-6.48,1.14-11.5,3.42-15.07,2.28-3.56,5.85-5.59,10.72-6.08l7.07-1.15v28.05ZM1227.13,221.72c-3.3-4.78-8.49-7.17-15.56-7.17-4.71,0-9.39,1.42-14.02,4.25-3.36,2.05-6.78,4.86-10.25,8.4v-55.66c0-1.62-.63-2.43-1.89-2.43h-17.68c-1.26,0-1.89.81-1.89,2.43v160.38c5.81.65,11.43,1.58,16.85,2.79,5.42,1.22,11.35,1.82,17.8,1.82,10.84,0,18.82-3.12,23.92-9.36,5.1-6.23,7.66-16.48,7.66-30.74v-52.24c0-10.21-1.65-17.7-4.95-22.48ZM1210.63,295.72c0,7.94-.94,13.45-2.83,16.52-1.89,3.08-5.03,4.62-9.43,4.62-1.73,0-3.58-.2-5.54-.61-1.97-.4-3.81-.69-5.54-.85v-70.74c2.03-2.49,4.11-4.59,6.25-6.29,3.06-2.43,6.09-3.65,9.07-3.65,2.83,0,4.87.97,6.13,2.92,1.26,1.94,1.89,5.19,1.89,9.72v48.36Z"/>
</svg>