<?xml version="1.0" encoding="UTF-8"?>
<svg xmlns="http://www.w3.org/2000/svg" version="1.1" viewBox="0 0 320 128">
  <defs>
    <style>
      #decanter-bg { isolation: isolate; fill-rule: evenodd; fill: #ffffff; }
      #wave { isolation: isolate; fill-rule: evenodd; fill: #b60005; }
      #decanter, #text { isolation: isolate; fill-rule: evenodd; fill: #000000; }
    </style>
  </defs>
  <path id="decanter-bg" d="M110.84,93.64l-31.65-24.12s-.04-.03-.05-.04h0c-4.17-3.2-6.72-7.44-6.72-12.08,0-.51.04-1.02.1-1.52h0l4.14-33.12-26.27-7.88,5.12,41h0c.06.5.1,1.01.1,1.52,0,4.64-2.54,8.88-6.72,12.07h0s-31.71,24.17-31.71,24.17c-5.37,4.09-3.45,12.14,2.33,13.98h0c8.29,2.6,25.11,4.38,44.5,4.38s36.21-1.78,44.5-4.38h0c5.78-1.84,7.71-9.89,2.34-13.98Z"/>
  <path id="wave" d="M110.84,93.64l-4.93-3.76h-.41s-.5.04-.5.04l-.5.04-.5.05-.5.05-.5.05-.5.05-.5.04-.5.03h-.5s-.5,0-.5,0l-.5-.03-.5-.06-.5-.08-.5-.1-.5-.11-.5-.11-.5-.1-.5-.08-.5-.05h-.5s-.5.03-.5.03l-.5.09-.5.13-.5.18-.5.21-.5.22-.5.22-.5.19-.5.14-.5.08h-.5s-.5-.11-.5-.11l-.5-.2-.5-.3-.5-.38-.5-.43-.5-.45-.5-.42-.5-.36-.5-.25-.5-.1-.5.08-.5.28-.5.47-.5.65-.5.79-.5.87-.5.88-.5.81-.5.64-.5.4-.5.08-.5-.29-.5-.69-.5-1.07-.5-1.39-.5-1.62-.5-1.73-.5-1.68-.5-1.46-.5-1.07-.5-.53-.5.13-.5.86-.5,1.59-.5,2.24-.5,2.76-.5,3.05-.5,3.08-.5,2.8-.5,2.23-.5,1.37-.5.31-.5-.87-.5-2.05-.5-3.11-.5-3.92-.5-4.38-.5-4.43-.5-4.04-.5-3.23-.5-2.09-.5-.72-.5.72-.5,2.09-.5,3.23-.5,4.04-.5,4.43-.5,4.38-.5,3.92-.5,3.11-.5,2.05-.5.87-.5-.31-.5-1.37-.5-2.23-.5-2.8-.5-3.08-.5-3.05-.5-2.76-.5-2.24-.5-1.59-.5-.86-.5-.13-.5.53-.5,1.07-.5,1.46-.5,1.68-.5,1.73-.5,1.62-.5,1.39-.5,1.07-.5.69-.5.29-.5-.08-.5-.4-.5-.64-.5-.81-.5-.88-.5-.87-.5-.79-.5-.65-.5-.47-.5-.28-.5-.08-.5.1-.5.25-.5.36-.5.42-.5.45-.5.43-.5.38-.5.3-.5.2-.5.1h-.5s-.5-.07-.5-.07l-.5-.14-.5-.19-.5-.22-.5-.22-.5-.21-.5-.18-.5-.13-.5-.09-.5-.04h-.5s-.5.06-.5.06l-.5.08-.5.1-.5.11-.5.11-.5.1-.5.08-.5.06-.5.03h-.5s-.5,0-.5,0l-.5-.03-.5-.04-.5-.05-.5-.05-.5-.05-.5-.05-.5-.04-.5-.03h-.41s-4.93,3.75-4.93,3.75c-5.37,4.09-3.45,12.14,2.33,13.98h0c8.29,2.6,25.11,4.38,44.5,4.38s36.21-1.78,44.5-4.38h0c5.78-1.84,7.71-9.89,2.34-13.98Z"/>
  <path id="decanter" d="M112.05,92.05l-31.67-24.14h0c-3.71-2.82-5.96-6.51-5.96-10.55,0-.46.04-.9.09-1.35h0l4.34-34.75-30.84-9.25,5.5,44h0c.06.45.09.9.09,1.35,0,4.04-2.25,7.73-5.96,10.55h0s-31.67,24.15-31.67,24.15c-6.79,5.18-4.25,15.4,3.17,17.54h0c9.03,2.64,25.75,4.41,44.88,4.41s35.84-1.77,44.88-4.4h0c7.42-2.15,9.96-12.37,3.17-17.55ZM107.7,105.77c-7.56,2.49-24.27,4.23-43.7,4.23s-36.18-1.74-43.72-4.24c-4.45-1.29-5.97-7.42-1.9-10.53l31.75-24.2h0c4.64-3.58,7.48-8.36,7.48-13.61,0-.61-.04-1.2-.12-1.79h0l-4.75-38h0l21.68,6.5-3.94,31.49h0c-.07.59-.12,1.19-.12,1.79,0,5.26,2.84,10.04,7.49,13.61h0s31.75,24.21,31.75,24.21c4.08,3.11,2.54,9.27-1.93,10.54Z"/>
  <path id="text" d="M135.72,43.98h-7.01c-.39,0-.59.2-.59.61v38.58c0,.41.2.61.59.61h7.31c4.12,0,7.21-1.47,9.25-4.4,2.04-2.94,3.06-7.42,3.06-13.46v-5.53c0-5.55-1.04-9.67-3.12-12.36-2.08-2.69-5.24-4.04-9.49-4.04ZM142.85,66.15c0,4.29-.55,7.43-1.65,9.42-1.1,1.98-2.91,2.98-5.42,2.98h-2.18v-29.34h2c2.55,0,4.4.89,5.54,2.67,1.14,1.78,1.71,4.58,1.71,8.38v5.89ZM167.6,57.83h4.54c.24,0,.39-.2.47-.61.31-2.79.13-5.2-.56-7.23-.69-2.02-1.82-3.59-3.39-4.71-1.57-1.11-3.56-1.67-5.95-1.67-3.34,0-5.88,1.06-7.63,3.19-1.75,2.13-2.62,5.32-2.62,9.57v15.01c0,4.33.87,7.54,2.62,9.63,1.75,2.09,4.29,3.13,7.63,3.13,3.57,0,6.2-1.19,7.87-3.58,1.67-2.39,2.37-5.71,2.09-9.96-.08-.45-.29-.67-.65-.67h-4.3c-.39,0-.55.22-.47.67.16,2.55-.09,4.58-.74,6.08-.65,1.5-1.92,2.25-3.8,2.25-1.57,0-2.76-.62-3.57-1.85-.81-1.23-1.21-3.25-1.21-6.04v-14.34c0-2.79.39-4.8,1.18-6.01.79-1.22,1.98-1.82,3.59-1.82,1.73,0,2.95.71,3.65,2.13.71,1.42.96,3.46.77,6.14-.08.49.08.73.47.73ZM189.69,44.47c-.04-.32-.24-.49-.59-.49h-5.89c-.35,0-.55.16-.59.49l-7.84,38.64c-.04.45.1.67.41.67h4.83c.31,0,.49-.16.53-.49l1.46-8.57h8.24l1.44,8.63c.08.28.26.43.53.43h4.89c.35,0,.49-.24.41-.73l-7.84-38.58ZM182.85,69.8l1.95-11.48c.27-1.42.51-2.82.71-4.22.2-1.4.37-2.8.53-4.22h.12c.2,1.42.4,2.82.62,4.22.22,1.4.46,2.78.74,4.16l1.92,11.54h-6.59ZM220.51,43.98h-4.18c-.31,0-.47.2-.47.61v19.56c0,.81,0,1.74.03,2.79.02,1.05.05,2.13.09,3.22.04,1.09.08,2.17.12,3.22.04,1.05.1,1.98.18,2.79h-.12c-.2-1.01-.43-2.16-.71-3.43-.28-1.28-.57-2.55-.88-3.83-.31-1.28-.61-2.44-.88-3.49l-5.66-21.02c-.08-.28-.28-.43-.59-.43h-6.19c-.31,0-.47.2-.47.61v38.58c0,.41.16.61.47.61h4.24c.31,0,.47-.2.47-.61v-18.77c0-1.17-.02-2.53-.06-4.07-.04-1.54-.08-3.07-.12-4.59-.04-1.52-.1-2.86-.18-4.04h.12c.35,1.62.73,3.39,1.12,5.32.39,1.92.86,3.88,1.41,5.86l5.6,20.53c.08.24.26.36.53.36h6.13c.35,0,.53-.2.53-.61v-38.58c0-.4-.18-.61-.53-.61ZM242.96,43.98h-17.8c-.35,0-.53.2-.53.61v3.95c0,.45.18.67.53.67h6.13v33.96c0,.41.18.61.53.61h4.42c.35,0,.53-.2.53-.61v-33.96h6.19c.31,0,.47-.22.47-.67v-3.95c0-.4-.16-.61-.47-.61ZM269.36,78.55h-9.43v-33.96c0-.4-.18-.61-.53-.61h-4.42c-.35,0-.53.2-.53.61v38.58c0,.41.18.61.53.61h14.38c.35,0,.53-.2.53-.61v-3.95c0-.45-.18-.67-.53-.67ZM288.28,80.49c-.04-1.09-.06-2.49-.06-4.19v-14.28c0-3.04-.59-5.19-1.77-6.47-1.18-1.28-3.1-1.91-5.77-1.91s-4.59.72-5.86,2.16c-1.28,1.44-1.82,3.47-1.62,6.11.04.49.27.73.71.73h3.77c.39,0,.57-.2.53-.61-.12-1.3,0-2.24.35-2.82.35-.59,1-.88,1.94-.88s1.57.26,1.89.79c.31.53.47,1.5.47,2.92v4.2l-2.71.36c-2.79.32-4.79,1.31-6.01,2.95-1.22,1.64-1.83,3.86-1.83,6.65,0,2.51.45,4.47,1.36,5.86.9,1.4,2.16,2.1,3.77,2.1,1.22,0,2.31-.33,3.27-1,.82-.57,1.73-1.5,2.73-2.75,0,.05,0,.09,0,.14.08,1.07.16,1.95.24,2.64.08.41.26.61.53.61h3.83c.31,0,.43-.22.35-.67-.04-.65-.08-1.52-.12-2.61ZM282.86,76.94c-.58.77-1.09,1.34-1.53,1.69-.63.51-1.24.76-1.83.76-.63,0-1.11-.33-1.44-1-.33-.67-.5-1.63-.5-2.89,0-1.62.28-2.88.85-3.77.57-.89,1.46-1.4,2.68-1.52l1.77-.29v7.01ZM306.78,55.43c-.82-1.19-2.12-1.79-3.89-1.79-1.18,0-2.35.35-3.51,1.06-.84.51-1.69,1.22-2.56,2.1v-13.92c0-.4-.16-.61-.47-.61h-4.42c-.31,0-.47.2-.47.61v40.09c1.45.16,2.86.39,4.21.7,1.36.3,2.84.46,4.45.46,2.71,0,4.7-.78,5.98-2.34,1.28-1.56,1.92-4.12,1.92-7.68v-13.06c0-2.55-.41-4.42-1.24-5.62ZM302.66,73.93c0,1.98-.24,3.36-.71,4.13-.47.77-1.26,1.15-2.36,1.15-.43,0-.89-.05-1.38-.15-.49-.1-.95-.17-1.38-.21v-17.68c.51-.62,1.03-1.15,1.56-1.58.77-.61,1.52-.91,2.27-.91.71,0,1.22.24,1.53.73.31.49.47,1.3.47,2.43v12.09Z"/>
</svg>