<?xml version="1.0" encoding="UTF-8"?>
<svg xmlns="http://www.w3.org/2000/svg" version="1.1" viewBox="0 0 512 512">
  <defs>
    <style>
      #decanter-bg { isolation: isolate; fill-rule: evenodd; fill: #ffffff; }
      #wave { isolation: isolate; fill-rule: evenodd; fill: #b60005; }
      #decanter { isolation: isolate; fill-rule: evenodd; fill: #000000; }
    </style>
  </defs>
  <path id="decanter-bg" d="M443.35,374.55l-126.59-96.49c-.07-.05-.14-.11-.21-.16l-.04-.03h0c-16.7-12.77-26.87-29.71-26.87-48.3,0-2.05.15-4.07.4-6.07h-.02l16.56-132.48-105.06-31.52,20.5,164h-.04c.24,2,.4,4.03.4,6.07,0,18.58-10.17,35.51-26.86,48.29v.02l-126.84,96.67c-21.49,16.38-13.79,48.55,9.34,55.91h0c33.17,10.41,100.43,17.53,178,17.53s144.83-7.12,178-17.52h0c23.14-7.37,30.84-39.54,9.35-55.92Z"/>
  <path id="wave" d="M443.35,374.55l-19.72-15.03h-.13s-.5.01-.5.01h-.5s-.5.03-.5.03l-.5.02-.5.02-.5.03-.5.03-.5.03-.5.04-.5.04-.5.04-.5.04-.5.05-.5.05-.5.05-.5.05-.5.05-.5.05-.5.05-.5.05-.5.06-.5.06-.5.05-.5.05-.5.05-.5.05-.5.05-.5.05-.5.05-.5.04-.5.04-.5.04-.5.03-.5.03-.5.02-.5.02-.5.02h-.5s-.5.01-.5.01h-.5s-.5,0-.5,0h-.5s-.5-.03-.5-.03l-.5-.02-.5-.03-.5-.04-.5-.04-.5-.05-.5-.06-.5-.06-.5-.07-.5-.07-.5-.08-.5-.08-.5-.09-.5-.09-.5-.1-.5-.1-.5-.1-.5-.11-.5-.11-.5-.11-.5-.11-.5-.11-.5-.11-.5-.11-.5-.11-.5-.11-.5-.1-.5-.1-.5-.1-.5-.09-.5-.08-.5-.08-.5-.07-.5-.06-.5-.05-.5-.05-.5-.04-.5-.03-.5-.02h-.5s-.5,0-.5,0l-.5.02-.5.03-.5.04-.5.05-.5.07-.5.08-.5.09-.5.1-.5.12-.5.13-.5.14-.5.15-.5.16-.5.17-.5.18-.5.19-.5.2-.5.2-.5.21-.5.21-.5.22-.5.22-.5.22-.5.22-.5.22-.5.22-.5.22-.5.21-.5.2-.5.2-.5.19-.5.18-.5.17-.5.15-.5.14-.5.12-.5.1-.5.09-.5.07-.5.05-.5.03h-.5s-.5-.02-.5-.02l-.5-.04-.5-.07-.5-.09-.5-.12-.5-.14-.5-.17-.5-.19-.5-.22-.5-.24-.5-.26-.5-.29-.5-.31-.5-.33-.5-.35-.5-.37-.5-.38-.5-.4-.5-.41-.5-.42-.5-.43-.5-.44-.5-.45-.5-.45-.5-.45-.5-.44-.5-.44-.5-.43-.5-.42-.5-.41-.5-.39-.5-.37-.5-.35-.5-.32-.5-.3-.5-.27-.5-.23-.5-.2-.5-.16-.5-.12-.5-.08-.5-.03h-.5s-.5.07-.5.07l-.5.1-.5.15-.5.2-.5.25-.5.3-.5.35-.5.4-.5.45-.5.5-.5.55-.5.59-.5.63-.5.67-.5.71-.5.75-.5.78-.5.81-.5.83-.5.85-.5.87-.5.88-.5.89-.5.89-.5.89-.5.88-.5.87-.5.85-.5.83-.5.8-.5.76-.5.72-.5.67-.5.62-.5.56-.5.5-.5.43-.5.36-.5.29-.5.21-.5.12-.5.03-.5-.06-.5-.15-.5-.25-.5-.34-.5-.44-.5-.54-.5-.64-.5-.74-.5-.83-.5-.93-.5-1.02-.5-1.11-.5-1.2-.5-1.28-.5-1.36-.5-1.43-.5-1.49-.5-1.55-.5-1.6-.5-1.65-.5-1.68-.5-1.71-.5-1.73-.5-1.74-.5-1.74-.5-1.72-.5-1.7-.5-1.67-.5-1.62-.5-1.57-.5-1.5-.5-1.43-.5-1.34-.5-1.24-.5-1.14-.5-1.02-.5-.89-.5-.75-.5-.61-.5-.46-.5-.3-.5-.13-.5.04-.5.22-.5.4-.5.58-.5.76-.5.95-.5,1.13-.5,1.32-.5,1.5-.5,1.68-.5,1.85-.5,2.01-.5,2.17-.5,2.32-.5,2.46-.5,2.59-.5,2.71-.5,2.81-.5,2.9-.5,2.98-.5,3.04-.5,3.08-.5,3.11-.5,3.11-.5,3.1-.5,3.07-.5,3.02-.5,2.96-.5,2.87-.5,2.76-.5,2.63-.5,2.49-.5,2.32-.5,2.14-.5,1.95-.5,1.73-.5,1.5-.5,1.26-.5,1-.5.73-.5.46-.5.17-.5-.12-.5-.42-.5-.72-.5-1.02-.5-1.32-.5-1.62-.5-1.91-.5-2.2-.5-2.47-.5-2.74-.5-3-.5-3.24-.5-3.46-.5-3.66-.5-3.85-.5-4.01-.5-4.15-.5-4.27-.5-4.36-.5-4.43-.5-4.47-.5-4.48-.5-4.47-.5-4.42-.5-4.35-.5-4.25-.5-4.13-.5-3.98-.5-3.8-.5-3.59-.5-3.37-.5-3.12-.5-2.85-.5-2.56-.5-2.26-.5-1.93-.5-1.6-.5-1.26-.5-.9-.5-.54-.5-.18-.5.18-.5.54-.5.9-.5,1.26-.5,1.6-.5,1.93-.5,2.26-.5,2.56-.5,2.85-.5,3.12-.5,3.37-.5,3.59-.5,3.8-.5,3.98-.5,4.13-.5,4.25-.5,4.35-.5,4.42-.5,4.47-.5,4.48-.5,4.47-.5,4.43-.5,4.36-.5,4.27-.5,4.15-.5,4.01-.5,3.85-.5,3.66-.5,3.46-.5,3.24-.5,3-.5,2.74-.5,2.47-.5,2.2-.5,1.91-.5,1.62-.5,1.32-.5,1.02-.5.72-.5.42-.5.12-.5-.17-.5-.46-.5-.73-.5-1-.5-1.26-.5-1.5-.5-1.73-.5-1.95-.5-2.14-.5-2.32-.5-2.49-.5-2.63-.5-2.76-.5-2.87-.5-2.96-.5-3.02-.5-3.07-.5-3.1-.5-3.11-.5-3.11-.5-3.08-.5-3.04-.5-2.98-.5-2.9-.5-2.81-.5-2.71-.5-2.59-.5-2.46-.5-2.32-.5-2.17-.5-2.01-.5-1.85-.5-1.68-.5-1.5-.5-1.32-.5-1.13-.5-.95-.5-.76-.5-.58-.5-.4-.5-.22-.5-.04-.5.13-.5.3-.5.46-.5.61-.5.75-.5.89-.5,1.02-.5,1.14-.5,1.24-.5,1.34-.5,1.43-.5,1.5-.5,1.57-.5,1.62-.5,1.67-.5,1.7-.5,1.72-.5,1.74-.5,1.74-.5,1.73-.5,1.71-.5,1.68-.5,1.65-.5,1.6-.5,1.55-.5,1.49-.5,1.43-.5,1.36-.5,1.28-.5,1.2-.5,1.11-.5,1.02-.5.93-.5.83-.5.74-.5.64-.5.54-.5.44-.5.34-.5.25-.5.15-.5.06-.5-.03-.5-.12-.5-.21-.5-.29-.5-.36-.5-.43-.5-.5-.5-.56-.5-.62-.5-.67-.5-.72-.5-.76-.5-.8-.5-.83-.5-.85-.5-.87-.5-.88-.5-.89-.5-.89-.5-.89-.5-.88-.5-.87-.5-.85-.5-.83-.5-.81-.5-.78-.5-.75-.5-.71-.5-.67-.5-.63-.5-.59-.5-.55-.5-.5-.5-.45-.5-.4-.5-.35-.5-.3-.5-.25-.5-.2-.5-.15-.5-.1-.5-.06h-.5s-.5.02-.5.02l-.5.08-.5.12-.5.16-.5.2-.5.23-.5.27-.5.3-.5.32-.5.35-.5.37-.5.39-.5.41-.5.42-.5.43-.5.44-.5.44-.5.45-.5.45-.5.45-.5.44-.5.43-.5.42-.5.41-.5.4-.5.38-.5.37-.5.35-.5.33-.5.31-.5.29-.5.26-.5.24-.5.22-.5.19-.5.17-.5.14-.5.12-.5.09-.5.07-.5.04-.5.02h-.5s-.5-.03-.5-.03l-.5-.05-.5-.07-.5-.09-.5-.1-.5-.12-.5-.14-.5-.15-.5-.17-.5-.18-.5-.19-.5-.2-.5-.2-.5-.21-.5-.22-.5-.22-.5-.22-.5-.22-.5-.22-.5-.22-.5-.22-.5-.21-.5-.21-.5-.2-.5-.2-.5-.19-.5-.18-.5-.17-.5-.16-.5-.15-.5-.14-.5-.13-.5-.12-.5-.1-.5-.09-.5-.08-.5-.07-.5-.05-.5-.04-.5-.03-.5-.02h-.5s-.5,0-.5,0l-.5.02-.5.03-.5.04-.5.05-.5.05-.5.06-.5.07-.5.08-.5.08-.5.09-.5.1-.5.1-.5.1-.5.11-.5.11-.5.11-.5.11-.5.11-.5.11-.5.11-.5.11-.5.11-.5.1-.5.1-.5.1-.5.09-.5.09-.5.08-.5.08-.5.07-.5.07-.5.06-.5.06-.5.05-.5.04-.5.04-.5.03-.5.02-.5.02h-.5s-.5.02-.5.02h-.5s-.5,0-.5,0h-.5s-.5-.02-.5-.02l-.5-.02-.5-.02-.5-.03-.5-.03-.5-.04-.5-.04-.5-.04-.5-.05-.5-.05-.5-.05-.5-.05-.5-.05-.5-.05-.5-.05-.5-.06-.5-.06-.5-.05-.5-.05-.5-.05-.5-.05-.5-.05-.5-.05-.5-.05-.5-.05-.5-.04-.5-.04-.5-.04-.5-.04-.5-.03-.5-.03-.5-.03-.5-.02-.5-.02-.5-.02h-.5s-.5-.03-.5-.03h-.12s-19.72,15.03-19.72,15.03c-21.49,16.38-13.79,48.55,9.34,55.91h0c33.17,10.41,100.43,17.53,178,17.53s144.83-7.12,178-17.52h0c23.14-7.37,30.84-39.54,9.35-55.92Z"/>
  <path id="decanter" d="M448.18,368.19l-126.68-96.58v-.03c-14.83-11.26-23.83-26.02-23.83-42.18,0-1.82.14-3.62.37-5.4h-.03l17.37-138.99-123.37-37.01,22,176h-.02c.22,1.78.37,3.58.37,5.4,0,16.17-9.01,30.93-23.85,42.19v.03l-126.68,96.57c-27.16,20.71-17.01,61.59,12.68,70.18v.03c36.12,10.53,102.98,17.61,179.5,17.61s143.38-7.07,179.5-17.61v-.03c29.69-8.58,39.85-49.47,12.68-70.18ZM430.78,423.06c-30.23,9.97-97.1,16.91-174.78,16.91s-144.72-6.95-174.9-16.95c-17.81-5.15-23.9-29.69-7.6-42.11l127-96.8v-.03c18.56-14.28,29.93-33.39,29.93-54.42,0-2.42-.18-4.81-.47-7.17h.04l-19-151.99h.02l86.73,26.02-15.75,125.97h.02c-.29,2.36-.47,4.74-.47,7.16,0,21.03,11.37,40.15,29.94,54.43v.03l127.01,96.81c16.34,12.45,10.18,37.07-7.73,42.14Z"/>
</svg>