<?xml version="1.0" encoding="UTF-8"?>
<svg xmlns="http://www.w3.org/2000/svg" version="1.1" viewBox="0 0 512 512">
  <defs>
    <style>
      #decanter-bg { isolation: isolate; fill-rule: evenodd; fill: #ffffff; }
      #wave { isolation: isolate; fill-rule: evenodd; fill: #b60005; }
      #decanter { isolation: isolate; fill-rule: evenodd; fill: #000000; }
    </style>
  </defs>
  <path id="decanter-bg" d="M443.35,374.55l-126.59-96.49c-.07-.05-.14-.11-.21-.16l-.04-.03h0c-16.7-12.77-26.87-29.71-26.87-48.3,0-2.05.15-4.07.4-6.07h-.02l16.56-132.48-105.06-31.52,20.5,164h-.04c.24,2,.4,4.03.4,6.07,0,18.58-10.17,35.51-26.86,48.29v.02l-126.84,96.67c-21.49,16.38-13.79,48.55,9.34,55.91h0c33.17,10.41,100.43,17.53,178,17.53s144.83-7.12,178-17.52h0c23.14-7.37,30.84-39.54,9.35-55.92Z"/>
  <path id="wave" d="M443.35,374.55l-39.99-30.48h-.41s-.51.01-.51.01h-.51s-.51.01-.51.01h-.51s-.51,0-.51,0h-.51s-.51,0-.51,0h-.51s-.51,0-.51,0h-.51s-.51,0-.51,0h-.51s-.51,0-.51,0h-.51s-.51-.02-.51-.02h-.51s-.51-.02-.51-.02h-.51s-.51-.03-.51-.03h-.51s-.51-.03-.51-.03l-.51-.02-.51-.02-.51-.02-.51-.02-.51-.02-.51-.02-.51-.02-.51-.02-.51-.02-.51-.02-.51-.02h-.51s-.51-.03-.51-.03h-.51s-.51-.02-.51-.02h-.51s-.51-.01-.51-.01h-.51s-.51,0-.51,0h-.51s-.51,0-.51,0h-.51s-.51.02-.51.02h-.51s-.51.03-.51.03l-.51.02-.51.02-.51.03-.51.03-.51.03-.51.03-.51.04-.51.04-.51.04-.51.04-.51.04-.51.04-.51.04-.51.04-.51.04-.51.04-.51.03-.51.03-.51.03-.51.03-.51.02-.51.02h-.51s-.51.02-.51.02h-.51s-.51,0-.51,0h-.51s-.51-.03-.51-.03l-.51-.02-.51-.03-.51-.04-.51-.04-.51-.05-.51-.06-.51-.06-.51-.07-.51-.07-.51-.08-.51-.08-.51-.08-.51-.09-.51-.09-.51-.09-.51-.09-.51-.09-.51-.08-.51-.08-.51-.08-.51-.07-.51-.06-.51-.06-.51-.05-.51-.04-.51-.03-.51-.02h-.51s-.51,0-.51,0l-.51.02-.51.03-.51.05-.51.06-.51.08-.51.09-.51.11-.51.12-.51.13-.51.14-.51.16-.51.17-.51.17-.51.18-.51.19-.51.19-.51.19-.51.19-.51.19-.51.19-.51.18-.51.17-.51.16-.51.15-.51.13-.51.11-.51.09-.51.07-.51.04-.51.02h-.51s-.51-.05-.51-.05l-.51-.07-.51-.1-.51-.13-.51-.16-.51-.19-.51-.22-.51-.25-.51-.28-.51-.31-.51-.33-.51-.36-.51-.38-.51-.39-.51-.41-.51-.42-.51-.42-.51-.42-.51-.42-.51-.41-.51-.4-.51-.38-.51-.36-.51-.33-.51-.29-.51-.26-.51-.21-.51-.16-.51-.11-.51-.06h-.51s-.51.07-.51.07l-.51.13-.51.2-.51.27-.51.34-.51.41-.51.47-.51.54-.51.6-.51.66-.51.72-.51.77-.51.81-.51.85-.51.88-.51.91-.51.92-.51.92-.51.92-.51.9-.51.88-.51.84-.51.79-.51.73-.51.66-.51.58-.51.48-.51.38-.51.27-.51.15-.51.02-.51-.12-.51-.26-.51-.4-.51-.55-.51-.7-.51-.85-.51-1-.51-1.14-.51-1.28-.51-1.41-.51-1.53-.51-1.64-.51-1.74-.51-1.82-.51-1.89-.51-1.94-.51-1.97-.51-1.98-.51-1.97-.51-1.94-.51-1.88-.51-1.8-.51-1.69-.51-1.57-.51-1.41-.51-1.24-.51-1.04-.51-.82-.51-.59-.51-.33-.51-.06-.51.22-.51.52-.51.82-.51,1.13-.51,1.44-.51,1.74-.51,2.05-.51,2.34-.51,2.62-.51,2.88-.51,3.12-.51,3.33-.51,3.52-.51,3.67-.51,3.79-.51,3.87-.51,3.91-.51,3.91-.51,3.86-.51,3.77-.51,3.63-.51,3.44-.51,3.21-.51,2.93-.51,2.6-.51,2.23-.51,1.83-.51,1.39-.51.92-.51.42-.51-.1-.51-.64-.51-1.18-.51-1.73-.51-2.27-.51-2.8-.51-3.32-.51-3.81-.51-4.26-.51-4.68-.51-5.05-.51-5.37-.51-5.64-.51-5.84-.51-5.98-.51-6.05-.51-6.04-.51-5.97-.51-5.82-.51-5.6-.51-5.32-.51-4.96-.51-4.54-.51-4.06-.51-3.53-.51-2.95-.51-2.34-.51-1.69-.51-1.03-.51-.34-.51.34-.51,1.03-.51,1.69-.51,2.34-.51,2.95-.51,3.53-.51,4.06-.51,4.54-.51,4.96-.51,5.32-.51,5.6-.51,5.82-.51,5.97-.51,6.04-.51,6.05-.51,5.98-.51,5.84-.51,5.64-.51,5.37-.51,5.05-.51,4.68-.51,4.26-.51,3.81-.51,3.32-.51,2.8-.51,2.27-.51,1.73-.51,1.18-.51.64-.51.1-.51-.42-.51-.92-.51-1.39-.51-1.83-.51-2.23-.51-2.6-.51-2.93-.51-3.21-.51-3.44-.51-3.63-.51-3.77-.51-3.86-.51-3.91-.51-3.91-.51-3.87-.51-3.79-.51-3.67-.51-3.52-.51-3.33-.51-3.12-.51-2.88-.51-2.62-.51-2.34-.51-2.05-.51-1.74-.51-1.44-.51-1.13-.51-.82-.51-.52-.51-.22-.51.06-.51.33-.51.59-.51.82-.51,1.04-.51,1.24-.51,1.41-.51,1.57-.51,1.69-.51,1.8-.51,1.88-.51,1.94-.51,1.97-.51,1.98-.51,1.97-.51,1.94-.51,1.89-.51,1.82-.51,1.74-.51,1.64-.51,1.53-.51,1.41-.51,1.28-.51,1.14-.51,1-.51.85-.51.7-.51.55-.51.4-.51.26-.51.12-.51-.02-.51-.15-.51-.27-.51-.38-.51-.48-.51-.58-.51-.66-.51-.73-.51-.79-.51-.84-.51-.88-.51-.9-.51-.92-.51-.92-.51-.92-.51-.91-.51-.88-.51-.85-.51-.81-.51-.77-.51-.72-.51-.66-.51-.6-.51-.54-.51-.47-.51-.41-.51-.34-.51-.27-.51-.2-.51-.13-.51-.07h-.51s-.51.05-.51.05l-.51.11-.51.16-.51.21-.51.26-.51.29-.51.33-.51.36-.51.38-.51.4-.51.41-.51.42-.51.42-.51.42-.51.42-.51.41-.51.39-.51.38-.51.36-.51.33-.51.31-.51.28-.51.25-.51.22-.51.19-.51.16-.51.13-.51.1-.51.07-.51.04h-.51s-.51,0-.51,0l-.51-.04-.51-.07-.51-.09-.51-.11-.51-.13-.51-.15-.51-.16-.51-.17-.51-.18-.51-.19-.51-.19-.51-.19-.51-.19-.51-.19-.51-.19-.51-.18-.51-.17-.51-.17-.51-.16-.51-.14-.51-.13-.51-.12-.51-.11-.51-.09-.51-.08-.51-.06-.51-.05-.51-.03-.51-.02h-.51s-.51,0-.51,0l-.51.02-.51.03-.51.04-.51.05-.51.06-.51.06-.51.07-.51.08-.51.08-.51.08-.51.09-.51.09-.51.09-.51.09-.51.09-.51.08-.51.08-.51.08-.51.07-.51.07-.51.06-.51.06-.51.05-.51.04-.51.04-.51.03-.51.02-.51.02h-.51s-.51.02-.51.02h-.51s-.51,0-.51,0h-.51s-.51-.03-.51-.03l-.51-.02-.51-.03-.51-.03-.51-.03-.51-.03-.51-.04-.51-.04-.51-.04-.51-.04-.51-.04-.51-.04-.51-.04-.51-.04-.51-.04-.51-.04-.51-.03-.51-.03-.51-.03-.51-.03-.51-.02-.51-.02-.51-.02h-.51s-.51-.03-.51-.03h-.51s-.51-.01-.51-.01h-.51s-.51,0-.51,0h-.51s-.51,0-.51,0h-.51s-.51.02-.51.02h-.51s-.51.02-.51.02h-.51s-.51.03-.51.03l-.51.02-.51.02-.51.02-.51.02-.51.02-.51.02-.51.02-.51.02-.51.02-.51.02-.51.02h-.51s-.51.03-.51.03h-.51s-.51.02-.51.02h-.51s-.51.02-.51.02h-.51s-.51.01-.51.01h-.51s-.51,0-.51,0h-.51s-.51,0-.51,0h-.51s-.51,0-.51,0h-.51s-.51,0-.51,0h-.51s-.51-.01-.51-.01h-.51s-.51-.01-.51-.01h-.4s-39.99,30.47-39.99,30.47c-21.49,16.38-13.79,48.55,9.34,55.91h0c33.17,10.41,100.43,17.53,178,17.53s144.83-7.12,178-17.52h0c23.14-7.37,30.84-39.54,9.35-55.92Z"/>
  <path id="decanter" d="M448.18,368.19l-126.68-96.58v-.03c-14.83-11.26-23.83-26.02-23.83-42.18,0-1.82.14-3.62.37-5.4h-.03l17.37-138.99-123.37-37.01,22,176h-.02c.22,1.78.37,3.58.37,5.4,0,16.17-9.01,30.93-23.85,42.19v.03l-126.68,96.57c-27.16,20.71-17.01,61.59,12.68,70.18v.03c36.12,10.53,102.98,17.61,179.5,17.61s143.38-7.07,179.5-17.61v-.03c29.69-8.58,39.85-49.47,12.68-70.18ZM430.78,423.06c-30.23,9.97-97.1,16.91-174.78,16.91s-144.72-6.95-174.9-16.95c-17.81-5.15-23.9-29.69-7.6-42.11l127-96.8v-.03c18.56-14.28,29.93-33.39,29.93-54.42,0-2.42-.18-4.81-.47-7.17h.04l-19-151.99h.02l86.73,26.02-15.75,125.97h.02c-.29,2.36-.47,4.74-.47,7.16,0,21.03,11.37,40.15,29.94,54.43v.03l127.01,96.81c16.34,12.45,10.18,37.07-7.73,42.14Z"/>
</svg>